<svg xmlns="http://www.w3.org/2000/svg" height="800" width="1200" viewBox="-59.7105 -22.48475 517.491 134.9085"><path fill="#00498F" d="M154.945 68.131h7.558V20.465h-7.952v47.666h.394m15.816 0h7.557V20.465h-7.949v47.666h.392m126.527 14.511c4.909.824 9.298-1.175 12.208-3.91 4.083-3.866 6.69-8.905 11.038-20.681l8.34-22.247.175-.477h-7.995l-.086.215-7.517 22.072-7.996-22.072-.089-.215h-8.73l.172.477 12.471 31.239c-1 2.784-2.607 5.126-4.172 6.693-1.999 1.911-4.779 2.779-7.82 2.261v6.645"/><path d="M280.342 34.5c-9.82 0-16.556 7.083-16.556 17.206 0 10.297 6.651 17.25 16.556 17.25 9.904 0 16.512-6.953 16.512-17.25 0-10.123-6.735-17.206-16.512-17.206zm-.044 28.071c-4.952 0-8.645-4.306-8.645-10.908 0-6.604 3.692-10.904 8.645-10.904 5.04 0 8.69 4.3 8.69 10.904 0 6.602-3.693 10.908-8.69 10.908m-147.47-28.159c-10.082 0-16.554 6.954-16.554 17.208 0 10.297 6.472 17.252 16.554 17.252 10.08 0 16.512-6.955 16.512-17.252 0-10.254-6.432-17.208-16.512-17.208zm-.045 28.07c-4.954 0-8.646-4.345-8.646-10.905 0-6.606 3.692-10.907 8.646-10.907 5.042 0 8.69 4.301 8.69 10.907 0 6.56-3.694 10.905-8.69 10.905m76.254-19.292h15.601v5.997h-15.601zm-98.154 11.254c1.652 5.212 2.521 10.428 3.132 13.556l-8.474.043c-.479-2.693-.957-6.431-2.433-10.95-1.695-5.389-3.824-7.866-8.864-7.866h-3.868v18.772H82.38V22.334c1.695 0 3.692-.131 5.823-.131h6.43c6.473 0 10.732 1.346 13.688 3.912 2.475 2.126 3.822 5.343 3.822 9.037 0 6.04-3.518 9.515-7.429 11.038 2.869 1.344 4.693 3.692 6.169 8.254zM95.459 28.765h-2.648c-1.131 0-1.871.088-2.435.088v14.336h4.649c5.475 0 9.211-2.825 9.211-7.3.001-4.648-3.042-7.079-8.777-7.124M258.79 54.444c1.65 5.212 2.518 10.428 3.128 13.556l-8.473.043c-.478-2.693-.957-6.431-2.434-10.95-1.696-5.389-3.824-7.866-8.862-7.866h-3.868v18.772h-7.996V22.334c1.695 0 3.693-.131 5.822-.131h6.433c6.473 0 10.73 1.346 13.686 3.912 2.478 2.126 3.824 5.343 3.824 9.037 0 6.04-3.52 9.515-7.43 11.038 2.87 1.344 4.692 3.692 6.17 8.254zm-15.427-25.679h-2.649c-1.129 0-1.868.088-2.432.088v14.336h4.65c5.474 0 9.209-2.825 9.209-7.3 0-4.648-3.041-7.079-8.778-7.124m-57.918 31.893c1.824 1.131 5.17 2.216 8.083 2.216 3.911 0 5.474-1.261 5.474-3.652 0-2.432-1.26-3.474-5.43-4.995-6.128-2.174-8.821-5.781-8.821-9.605 0-5.515 4.563-10.08 11.906-10.08 3.476 0 6.517 1.041 8.386 2.128l-1.564 5.302c-1.78-.824-3.866-1.564-6.821-1.521-3.042.044-4.259 1.434-4.259 3.388 0 2.262 2.304 3.565 5.258 4.564 5.866 1.954 8.995 5.257 8.995 10.211-.042 5.864-4.953 10.166-13.211 10.166-3.735 0-7.299-.781-9.557-2.475l1.561-5.647m169.153 6.257c-1.65.785-5.084 1.781-9.257 1.781-9.513-.087-16.595-6.604-16.595-16.687 0-9.819 6.384-17.422 17.86-17.422 3.255 0 6.298.868 8.078 1.694l-1.391 5.778c-1.388-.694-3.432-1.13-6.517-1.13-6.734 0-9.905 4.434-9.861 10.734 0 7.039 3.866 10.948 9.819 10.948 3.042 0 5.171-.694 6.779-1.388l1.085 5.692m9.429-13.382c.218 6.73 4.259 9.124 9.819 9.124 3.955 0 6.649-.654 8.996-1.564l1.171 5.477c-2.518 1.083-6.298 2.302-11.207 2.302-10.342 0-16.512-6.822-16.512-16.729 0-9.301 5.603-17.51 15.73-17.51 10.603 0 13.816 8.95 13.816 15.596 0 1.436 0 2.522-.174 3.26zm14.383-5.607c.044-3.259-.916-7.648-6.867-7.648-5.473 0-7.079 4.041-7.475 7.648h14.342" fill="#00498F"/><path d="M2.649 7.779c0-2.824 2.304-5.13 5.128-5.13h39.497c2.868 0 5.17 2.306 5.17 5.13v74.385c0 2.829-2.303 5.127-5.17 5.127H7.778c-2.824 0-5.128-2.299-5.128-5.127V7.779" fill="#FFF"/><path d="M4.779 16.553V7.779c0-1.652 1.349-2.999 2.999-2.999h39.497c1.695 0 3.04 1.347 3.04 2.999v8.774H4.779m0 2.131h45.536V71.26H4.779z" fill="#00498F"/><path d="M2.649 7.779c0-2.824 2.304-5.13 5.128-5.13h39.497c2.868 0 5.17 2.306 5.17 5.13v74.385c0 2.829-2.303 5.127-5.17 5.127H7.778c-2.824 0-5.128-2.299-5.128-5.127V7.779zm52.402 0C55.051 3.476 51.575 0 47.275 0H7.778C3.477 0 0 3.477 0 7.779v74.385c0 4.303 3.477 7.775 7.778 7.775h39.497c4.3 0 7.776-3.473 7.776-7.775V7.779" fill="#00498F"/><path d="M4.779 73.387v8.777c0 1.652 1.349 3.001 2.999 3.001h39.497c1.695 0 3.04-1.349 3.04-3.001v-8.777H4.779" fill="#00498F"/><path d="M24.289 62.874V51.185c1.13-.044 2.213-.088 3.301-.173-.39-.913-.784-1.826-1.261-2.696-.654.088-1.346.088-2.041.13v-2.432c-1.522.346-3.172.608-4.866.782v16.078c0 3.563-1.651 4.52-2.652 5.17h10.168c-.954-.651-2.649-1.607-2.649-5.17M47.927 68c-.827-.783-1.871-1.998-2.389-4.39-.96-4.388-2.958-10.686-7.171-15.381 4.127-2.259 6.648-5.821 6.648-10.208.042-3.131-1.566-6.434-4.434-8.388-1.215-.779-2.649-1.346-4.344-1.697.609 1.307.999 2.696 1.088 4.087 1.782 1.389 2.736 3.518 2.736 6.082 0 3.261-1.653 7.083-7.431 9.039.479.912.955 1.869 1.347 2.781.304-.087.61-.176.914-.26 2.691 3.128 4.865 8.038 5.516 12.6.479 3.302-.693 4.953-1.476 5.735h8.996" fill="#FFF"/><path d="M37.802 62.742c-.869-.782-1.912-1.998-2.39-4.388-.958-4.389-2.867-10.559-6.691-14.945.173-.088.304-.13.479-.219 4.344-2.213 6.996-5.909 6.996-10.427.042-3.173-1.566-6.43-4.434-8.386-2.259-1.52-5.301-2.131-9.167-2.131H7.951c1 .653 2.65 1.61 2.65 5.172v30.155c0 3.609-1.651 4.519-2.65 5.17h10.167c-.957-.651-2.65-1.561-2.65-5.17V45.885c3.563 0 6.91-.436 9.733-1.176 2.565 3.086 4.477 7.868 5.084 12.255.434 3.299-.696 4.997-1.478 5.778zM15.468 43.19V24.941h6.91c2.52.045 4.387.565 5.867 1.609 1.951 1.387 2.995 3.604 2.995 6.256 0 4.474-3.084 10.169-15.772 10.384" fill="#FFF"/><path d="M24.289 40.582V30.285h5.475c-.391-1.13-1.087-2.043-2.042-2.738H16.771c1.001.651 2.652 1.565 2.652 5.171v9.083c1.825-.262 3.476-.652 4.866-1.219m9.95 38.716c0 1.477.869 2.604 2.388 2.604 1.088 0 2.085-.306 2.521-.825l-.262 1.699c-.39.168-1.085.39-2.214.39-2.433 0-4.128-1.436-4.128-3.869 0-1.302.522-2.302 1.302-2.955.696-.605 1.651-.958 2.826-.958 1.129 0 1.825.218 2.214.433v1.612c-.478-.522-1.171-.784-2.259-.784-1.519.001-2.388 1.132-2.388 2.653m-19.683 1.826c-.348-.697-.652-1.262-1.175-1.478 1.13-.218 1.695-.915 1.739-1.87 0-1-.434-1.739-1.216-2.039-.479-.178-1.129-.178-2.084-.178H8.038c.35.219.565.956.565 1.652v4.171c0 .609-.215 1.393-.565 1.649h2.694c-.345-.256-.564-1.041-.564-1.649v-1.346h1.128c.61 0 .956.259 1.217.69.392.655.698 1.57 1.174 2.26l2.215.044c-.693-.517-.997-1.172-1.346-1.906zm-1.086-3.307c0 .74-.609 1.046-1.564 1.046h-1.738v-2.086h1.738c.954 0 1.564.262 1.564 1.04m5.299 3.435c-.432-.39-.651-1.04-.651-1.954 0-.912.219-1.562.651-1.999.39-.39.913-.608 1.609-.608.651 0 1.174.218 1.566.608.434.438.651 1.087.651 1.999 0 .915-.217 1.564-.651 1.954-.393.394-.916.65-1.566.65-.696 0-1.219-.257-1.609-.65zm1.566 1.955c1.042 0 1.912-.303 2.564-.871.779-.649 1.347-1.646 1.347-3.038 0-1.39-.568-2.389-1.347-3.089-.652-.519-1.522-.823-2.564-.823-1.001 0-1.869.305-2.521.823-.782.7-1.347 1.699-1.347 3.089 0 1.392.565 2.389 1.347 3.038.652.567 1.519.871 2.521.871m9.732-7.648c.176.131.262.259.218.438 0 .172-.089.432-.262.693l-1.475 2.129-1.48-2.173c-.173-.262-.346-.521-.303-.739.042-.128.088-.26.261-.348h-2.998c.523.219.779.609 1.172 1.174l2.432 3.435v1.215c0 .609-.215 1.393-.564 1.605h2.696c-.348-.212-.564-.996-.564-1.605v-1.215l2.215-3.129c.347-.434.827-1.221 1.345-1.48h-2.693m14.428 6.256H42.58v-2.04h2.869l.173-1.13H42.58v-1.868h1.694c.956 0 1.74.044 2.129.435v-1.653H40.45c.348.259.568 1.046.568 1.652v4.171c0 .652-.22 1.393-.568 1.649h5.998l.26-1.825c-.435.568-1.259.609-2.213.609m-3.781-69.561c.171.26.564.565.823.695.74.391 1.391.52 2.086.52 1.086 0 1.74-.476 1.74-1.173 0-.825-.827-.955-2.086-1.131-1.607-.215-2.478-.954-2.478-2.256.044-1.305 1.261-2.303 3.044-2.303 1.214 0 2.04.259 2.561.52V8.82c-.172-.305-.563-.522-.955-.695-.522-.174-1.042-.26-1.606-.26-.873 0-1.392.348-1.392.78 0 .74.694.827 2.213 1.13 1.522.308 2.435.958 2.393 2.305-.044 1.563-1.263 2.607-3.434 2.607-.957 0-2.173-.175-2.909-.565v-1.868m-25.856.345c-.39-.738-.693-1.302-1.257-1.563 1.216-.261 1.823-.954 1.823-1.998 0-1.001-.434-1.782-1.258-2.086-.523-.217-1.174-.217-2.173-.217h-4c.395.26.61 1.043.61 1.738v4.386c0 .654-.215 1.48-.61 1.697h2.87c-.39-.217-.61-1.043-.61-1.697v-1.39h1.219c.61 0 .955.217 1.217.697.435.692.737 1.65 1.258 2.39h2.305c-.697-.477-1.043-1.217-1.394-1.957zm-1.129-3.475c0 .784-.651 1.087-1.648 1.087h-1.829V7.994h1.829c.997 0 1.648.304 1.648 1.13m5.563 3.607c-.479-.436-.694-1.129-.694-2.084 0-.913.215-1.608.694-2.088.39-.39.955-.651 1.65-.651.696 0 1.26.261 1.653.651.476.479.738 1.175.738 2.088 0 .955-.262 1.648-.738 2.084-.393.39-.957.651-1.653.651-.695 0-1.26-.261-1.65-.651zm1.65 2.042c1.088 0 2-.305 2.694-.912.826-.697 1.391-1.738 1.391-3.214 0-1.435-.565-2.521-1.391-3.214-.694-.567-1.606-.872-2.694-.872-1.085 0-1.999.305-2.694.872-.824.693-1.392 1.779-1.392 3.214 0 1.477.568 2.518 1.392 3.214.696.607 1.651.912 2.694.912m11.3-2.214c-.437.562-1.348.738-2.35.738h-1.519V8.474c0-.651.217-1.478.565-1.738h-2.825c.39.26.609 1.086.609 1.738v4.386c0 .697-.219 1.435-.609 1.697h5.867l.262-1.998m7.082 0c-.438.562-1.348.78-2.349.738h-1.564V8.474c0-.651.217-1.478.609-1.738h-2.825c.39.26.607 1.086.607 1.738v4.386c0 .697-.217 1.48-.607 1.738h5.825l.304-2.039" fill="#FFF"/><path d="M388.769 34.328c0-2.414 1.819-4.233 4.151-4.233 2.306 0 4.125 1.82 4.125 4.233 0 2.453-1.819 4.26-4.125 4.26-2.331 0-4.151-1.807-4.151-4.26zm4.152 5.11c2.776 0 5.149-2.158 5.149-5.11 0-2.926-2.373-5.083-5.149-5.083-2.804 0-5.176 2.157-5.176 5.083 0 2.951 2.372 5.11 5.176 5.11zm-1.079-4.706h1.024l1.551 2.548h.997l-1.672-2.588c.864-.107 1.524-.566 1.524-1.618 0-1.16-.687-1.672-2.076-1.672h-2.237v5.877h.889zm0-.755v-1.82h1.214c.62 0 1.28.134 1.28.863 0 .903-.674.957-1.429.957z" fill="#00498F"/></svg>